<?xml version="1.0" encoding="UTF-8"?><svg id="Layer_2" xmlns="http://www.w3.org/2000/svg" viewBox="0 0 942.2 354.97"><defs><style>.cls-1{fill:#e61c24;}.cls-1,.cls-2{stroke-width:0px;}.cls-3{fill:#fff;stroke:#000;stroke-miterlimit:10;stroke-width:4px;}.cls-2{fill:#fbfbfb;}</style></defs><g id="Layer_1-2"><path class="cls-3" d="m512,347.12v-170.91c.66-.21,1.12-.48,1.57-.47,26.31.19,52.69-.72,78.92.86,44.29,2.68,78.14,40.7,78.13,85.83-.01,44.13-33.89,81.83-77.8,84.4-26.7,1.56-53.56.29-80.81.29Zm50-121.71v73.52c7.5,0,14.79.24,22.05-.05,18.98-.75,34.49-15.74,35.53-34.06,1.11-19.71-12.55-36.94-32.02-39.25-8.32-.99-16.85-.16-25.56-.16Z"/><path class="cls-3" d="m7,345.74v-51c1.82,0,3.42,0,5.02,0,24.48,0,48.96.02,73.44-.05,2.46,0,5.42.14,7.25-1.1,2.3-1.56,3.68-4.48,5.46-6.82-2.26-1.65-4.4-3.49-6.82-4.85-1.02-.58-2.61-.17-3.94-.17-9.33-.01-18.66-.24-27.98.01-33.15.9-52.38-24.03-53.5-53.05-.6-15.7,3.55-29.68,15.79-40.38,8.77-7.67,19.25-11.4,30.69-11.52,29.64-.3,59.29-.14,88.93-.15.46,0,.93.21,1.65.39v45.69c-2.24,0-4.35,0-6.46,0-25.81,0-51.63,0-77.44-.01-3.46,0-7.2-.09-7.01,4.77.17,4.45,3.29,5.44,7.31,5.54,16.79.42,33.68.09,50.33,1.89,14.96,1.62,28.18,8.57,34.33,23.3,3.24,7.77,4.72,16.7,5.08,25.18,1.53,36.1-24.14,62.3-60.34,62.34-25.65.03-51.29,0-76.94,0-1.47,0-2.93,0-4.87,0Z"/><path class="cls-3" d="m462.04,176.74c0,11.07.12,22.54-.03,34.01-.25,20.49.63,41.09-1.32,61.42-2.62,27.48-14.82,50.32-39.51,64.79-33.98,19.9-93.81,14.03-110.8-47.1-2.82-10.14-3.93-20.99-4.17-31.55-.59-25.82-.21-51.66-.22-77.49v-5.08h54.24c0,2.05,0,3.81,0,5.56.17,29.99.16,59.99.67,89.97.1,6.04,1.67,12.2,3.47,18.02,2.53,8.23,8.32,13.15,17.28,13.34,9.1.2,16.91-3.08,20.04-11.9,2.79-7.87,4.9-16.38,5.14-24.68.81-28.81.68-57.65.91-86.48,0-1.13.1-2.26.16-2.85h54.14Z"/><path class="cls-3" d="m851.7,352.91c-41.65.93-86.17-32.29-87.45-85.27-1.2-49.95,39.2-90.84,88.38-90.43,48.44.4,86.01,38.92,87.52,84.46,1.82,55.15-44.59,93.13-88.45,91.24Zm-8.84-52.01c2.23-.38,4.47-.76,7.41-1.27-19.13-6.83-20.8-8.33-32.14-28.67-.11,2.19-.2,3.96-.29,5.72l-.88.17c-1-2.13-1.99-4.25-2.99-6.38l-.96.21v9.82c-2.13-2.7-3.48-4.41-4.83-6.1l-.89.42c.44,1.99.88,3.98,1.32,5.96l-1.12.55-4.11-4.92-.7.35c.58,2.5,1.16,5.01,2.03,8.78-2.46-2.83-3.96-4.56-6.28-7.22.42,3.31.65,5.17.88,7.03-.54-.19-1.09-.39-1.63-.58-.72,1.53-1.44,3.06-2.14,4.52-.74-.52-1.7-1.19-3.51-2.45,1.4,3.63,2.42,6.29,3.43,8.93l-1.03.61c-1.71-2-3.43-4-5.67-6.62.2,2.91.33,4.81.53,7.78-1.68-2.28-2.64-3.59-3.6-4.9l-.59.3c.86,2.71,1.73,5.42,2.59,8.12l-.76.52c-1.69-1.41-3.39-2.82-5.08-4.22,8.87,21.33,38.51,46.13,52.49,44.78-1.03-1.29-1.96-2.46-2.82-3.54,1.3-.9,2.44-1.69,3.68-2.55-1.83-1.49-2.71-2.2-4.36-3.54,3.03.5,5,.83,7.6,1.26-1.18-1.9-1.97-3.15-3.34-5.36,2.94.53,4.58.83,6.25,1.13l.4-1c-2.76-1.78-5.52-3.56-8.28-5.35l.26-.63c4.33.87,8.66,1.74,13,2.61l.35-1.01c-1.94-.97-3.88-1.94-6.21-3.11,1.77-.33,3-.57,4.6-.87-.99-1.2-1.69-2.06-2.69-3.28,2.42-.22,4.29-.38,6.16-.55l.19-.95c-3.92-2.06-7.85-4.13-12.95-6.81,4.22.45,7.05.75,9.87,1.06l.51-1.17c-1.33-1.15-2.66-2.3-4.24-3.66,2.77-.15,5.08-.27,7.39-.39l.14-.8c-2.29-.95-4.58-1.9-6.87-2.85,0,0-.14.11-.14.11Zm52.58-47.7c-.5-2.61-.84-4.42-1.19-6.24l1.04-.47c1.83,2.37,3.66,4.75,5.49,7.12l.8-.39-2-7.57.68-.35c1.75,2.12,3.5,4.25,5.92,7.19-.31-2.82-.49-4.49-.71-6.52l4.04,1.62c-1.06-2.7-1.81-4.61-2.83-7.18,1.87.54,3.08.9,5.07,1.48-1.03-2.9-1.8-5.05-2.56-7.2l2-.83c.78,1.65,1.55,3.3,2.33,4.95l1.47-.33v-5.39c1.68,2.05,2.63,3.21,3.58,4.37l.63-.33c-.73-2.46-1.46-4.92-2.19-7.38l.97-.56c1.62,1.72,3.24,3.44,4.87,5.17.21-15.8-35.14-45.85-53.57-45.48.64,1.2,1.26,2.34,2.22,4.14-2.58-.38-4.44-.65-7.2-1.05,3.59,2.16,6.29,3.79,8.98,5.42l-.43,1.21c-2.51-.34-5-.68-8.74-1.19,2.62,1.74,4.13,2.74,5.64,3.74l-.42,1.08c-3.09-.47-6.18-.93-9.27-1.4l-.2.57,8.45,4.83-.5,1.44c-2.82-.43-5.64-.86-9.87-1.5,2.24,1.66,3.37,2.5,5.5,4.08-3.33-.15-5.45-.25-8.23-.38,3.2,1.85,5.64,3.26,8.08,4.67l-.34,1.01c-2.14-.26-4.27-.52-6.41-.78l-.31.94c2.72,1.51,5.44,3.01,8.16,4.52l-.16,1.04c-1.45.31-2.87.6-4.69.98.96,1.42,1.59,2.36,2.65,3.47h-7.39c-.04.73-.08,1-.12,1.26,2.69.92,5.38,1.85,8.07,2.77l-.16.96h-7.46c14.09,4.1,24.52,12.02,29.86,25.88,1.07-.81,1.91-1.45,2.8-2.13,1.01,1.67,1.76,2.92,2.52,4.16l.91-.31c-.3-2.81-.6-5.61-.96-9.02,1.76,1.32,3.11,2.33,5.17,3.88Zm-43.69,37.62c14.64.02,26.35-11.35,26.37-25.61.02-13.95-11.36-25.36-25.38-25.44-14.39-.08-25.97,11.2-26.01,25.33-.04,14.27,11.07,25.69,25.03,25.71Z"/><path class="cls-3" d="m2,160.15V4.6c1.33-.13,2.6-.37,3.87-.37,20.83.02,41.66-.03,62.49.14,22.44.18,41.9,8.04,56.92,24.76,21.27,23.68,27.28,51.33,16.06,81.16-11.17,29.69-33.64,47.37-65.31,49.84-24.34,1.9-48.94.39-73.43.38-.13,0-.27-.15-.61-.36Zm45-43.59c6.74,0,12.89.07,19.04-.01,17.02-.23,30.9-12.49,33.3-29.35,2.28-16.04-8.11-32.77-24.27-36.57-9.01-2.12-18.65-1.53-28.07-2.17v68.1Z"/><path class="cls-3" d="m521.14,160.74c25.44-39.76,50.56-79.03,76.13-119h-78.27V4.74h157.53c-23.82,38.45-47.26,76.29-71.24,115h70.71v41h-154.86Z"/><path class="cls-3" d="m214.58,159.74h-52.79c27.6-51.38,54.93-103.1,82.6-155.44,27.38,52.32,54.45,104.02,81.77,156.44h-52.79c-9.57-18.11-19.26-36.21-29.36-55.11-10.03,18.72-19.66,36.71-29.43,54.11Z"/><path class="cls-3" d="m280,175.74v49h-32v123h-46v-122h-33v-50h111Z"/><path class="cls-3" d="m439,160.74h-41v-5.45s.12-44.67-.07-66.99c-.02-2.76-.93-5.43-2.57-7.64-18.23-24.42-36.64-48.69-55-73.01-.66-.87-1.21-1.82-2.09-3.9h52.45c9.52,15.61,19.25,30.84,29.42,46.75,9.99-15.66,29.32-45.75,29.32-45.75h52.08c-9.3,11.88-18.16,23.22-27.04,34.54-11.27,14.37-22.61,28.67-33.72,43.16-1.25,1.64-1.67,4.28-1.68,6.47-.13,22.14-.09,44.28-.1,66.42,0,1.64,0,3.28,0,5.41Z"/><path class="cls-3" d="m692,175.74h55v171h-55v-171Z"/><path class="cls-1" d="m719.99,163.24c-18.5.83-31.81-15.06-31.53-31.34.25-14.44,13.01-29.8,30.1-30.14,17.89-.35,32.72,13.8,32.3,30.67-.44,17.7-13.19,30.8-30.87,30.81Z"/><path class="cls-3" d="m775,98.82c11.06,0,21.74-.71,32.28.21,9.36.82,14.78,7.27,16.14,16.43,1.23,8.27-2.61,15.13-10.82,19.39-.72.37-1.41.79-2.51,1.41,4.58,7.88,9.06,15.59,13.87,23.46h-16.66c-4.74-7.21-9.5-14.93-14.38-22.56-.19-.3-1.5.11-2.91.22v23.34h-15v-61.91Zm16,27.47c2.58,0,4.87.02,7.15,0,1.32-.02,2.66-.02,3.96-.2,4.23-.58,6.46-3.04,6.54-7.34.08-4.32-2.37-7.46-6.63-7.83-3.56-.31-7.17-.06-11.02-.06v15.44Z"/><path class="cls-3" d="m923.35,139.74h15.59c-1.9,13.21-15.46,22-31.76,20.89-15.96-1.09-27.39-13.52-27.71-30.13-.32-16.95,10.33-29.95,25.95-31.67,17.18-1.89,30.99,6.57,33.67,20.91h-15.63c-6.59-8.52-16.22-10.29-23.17-4.17-7.14,6.3-7.45,21.16-.57,27.65,6.91,6.53,16.84,5.03,23.63-3.48Z"/><path class="cls-3" d="m849,123.74h20v11h-20v13h23v13h-38v-62h38v11h-23v14Z"/><path class="cls-2" d="m808.38,280.33l.83,1.88c-.2.15-.41.29-.61.44-.41-.43-.82-.86-1.23-1.3.34-.34.68-.68,1.02-1.02Z"/><path class="cls-2" d="m842.88,300.79c-.41-.18-.82-.37-.31-.14-.33-.42-.07-.09.18.24,0,0,.13-.1.13-.1Z"/><path class="cls-2" d="m787.44,301.52c.23.51.45,1.02.68,1.53-.25.12-.5.24-.75.36-.24-.51-.48-1.01-.73-1.52.27-.12.53-.25.8-.37Z"/><path class="cls-2" d="m795.61,297.51c-.21-.12-.41-.23-.61-.35.11-.1.24-.31.31-.29.22.05.42.2.63.3-.1.11-.2.21-.32.34Z"/><path class="cls-2" d="m871.4,202.72c-.47-.12-.99-.17-1.39-.41-.11-.07.13-.72.21-1.1.54.22,1.09.44,1.63.66-.15.28-.31.57-.46.85Z"/><path class="cls-2" d="m863.31,209.42l1.78.7-.07.55c-.72-.05-1.44-.1-2.16-.15.15-.36.3-.73.44-1.09Z"/><path class="cls-2" d="m912.17,230.56c.95.39,1.39.57,1.83.75-.4.16-.78.35-1.19.46-.05.01-.21-.38-.64-1.21Z"/><path class="cls-2" d="m905.72,246.23c-.5-.22-1-.44-1.5-.66.04-.18.07-.36.11-.54.6.07,1.21.13,1.81.2-.14.33-.28.67-.42,1Z"/><path class="cls-2" d="m914.14,233.04c.13-.13.24-.24.36-.36.11.22.26.44.31.67.02.08-.2.22-.31.33-.12-.22-.24-.43-.36-.64Z"/><path class="cls-3" d="m852.43,258.15c3.82.07,6.83,3.21,6.8,7.08-.03,3.93-3.07,6.98-6.92,6.94-4.02-.03-6.66-2.85-6.64-7.07.02-4.05,2.92-7.02,6.77-6.96Z"/></g></svg>