<?xml version="1.0" encoding="UTF-8"?><svg id="Layer_2" xmlns="http://www.w3.org/2000/svg" viewBox="0 0 944.16 358.17"><defs><style>.cls-1{fill:#fff;}.cls-1,.cls-2{stroke:#000;stroke-miterlimit:10;stroke-width:6px;}.cls-2{fill:#e61c24;}</style></defs><g id="Layer_1-2"><path class="cls-1" d="m513.4,349.62v-171.7c1.84,0,3.46,0,5.07,0,22.15.06,44.31-.07,66.46.24,35.7.5,62.48,16.46,78.32,48.45,13.3,26.87,12.11,54.19-2.78,80.39-13.04,22.93-33.02,36.48-58.83,41.42-4.56.87-9.26,1.3-13.9,1.32-23.82.14-47.64.08-71.46.09-.81,0-1.63-.11-2.88-.21Zm49.71-121.93v73.49c6.86,0,13.47.04,20.08-.02,2.32-.02,4.7-.04,6.96-.51,2.75-.57,5.5-1.4,8.08-2.5,15.16-6.43,24.38-22.3,22.28-38.12-2.24-16.84-14.77-30.24-31.35-32.17-8.48-.99-17.18-.17-26.04-.17Z"/><path class="cls-1" d="m7.86,347.88v-50.85c1.64-.09,3.08-.24,4.52-.24,24.66-.02,49.31,0,73.97-.05,2.3,0,4.69-.19,6.89-.81,3.9-1.11,6.24-4.24,5.82-7.12-.39-2.66-3.3-4.72-7.27-4.94-2.82-.16-5.66-.09-8.49-.1-9.33-.04-18.67.2-27.98-.18-18.26-.75-32.17-9.19-40.96-25.18-8.31-15.12-10.06-31.29-4.99-47.85,5.7-18.64,22.51-31.29,43.44-31.65,29.98-.52,59.97-.15,89.95-.14.29,0,.58.24,1.15.49v45.61c-2.07,0-4.01,0-5.96,0-24.99,0-49.98,0-74.96,0-1.67,0-3.33-.03-5,.05-3.29.17-4.95,1.57-5.11,4.22-.18,2.92,1.92,5.54,4.91,5.89,1.65.19,3.33.06,4.99.09,13.98.28,27.97.33,41.94.93,8.57.37,16.71,2.92,24.23,7.14,9.96,5.59,16.55,13.84,19.01,25.06,2.84,13,3.74,26.05-.47,38.97-7.52,23.08-23.97,35.66-47.38,39.75-4.39.77-8.94.88-13.42.89-24.49.08-48.98.04-73.47.03-1.63,0-3.27,0-5.36,0Z"/><path class="cls-1" d="m462.93,178.14c.06,1.16.15,1.97.15,2.78-.07,27,0,54-.28,81-.21,20.81-5.45,40.23-18.09,57.1-14.64,19.54-34.48,29.16-58.78,30.01-36.02,1.27-64.69-20.79-74.77-56.95-2.88-10.32-4.21-20.87-4.19-31.6.03-25.83,0-51.66-.02-77.5,0-1.48,0-2.95,0-4.75h54.24c0,1.72,0,3.47,0,5.23,0,25.67-.13,51.33.09,77,.07,7.8.92,15.61,1.83,23.37.38,3.24,1.56,6.48,2.86,9.51,5.62,13.19,24.63,15.92,33.52,4.56,2.88-3.68,4.98-8.36,6.15-12.91,1.48-5.74,2.19-11.81,2.28-17.75.43-28.33.54-56.66.77-84.99.01-1.29,0-2.58,0-4.11h54.24Z"/><path class="cls-1" d="m853.11,355.12c-41.97,1.19-87-32.26-87.83-85.31-.87-55.63,43.32-90.56,88.35-90.36,48.43.22,86.47,39.25,87.51,85.47,1.21,54.02-44.36,91.87-88.02,90.21Zm-9.29-52.09c2.21-.36,4.41-.72,6.62-1.07-15.48-4.21-25.95-13.42-31.76-28.23v5.13c-.26.09-.52.18-.78.27l-3.27-6.57-.91.22v9.82c-2.05-2.61-3.4-4.32-4.74-6.03-.29.16-.58.33-.87.49.4,1.83.81,3.66,1.21,5.49-.34.34-.68.68-1.01,1.02-1.4-1.67-2.79-3.35-4.19-5.02-.21.15-.42.3-.63.45.59,2.53,1.19,5.05,1.78,7.58-.23.06-.45.13-.68.19-1.5-1.76-2.99-3.53-4.49-5.29-.21.16-.43.32-.64.47.23,1.85.45,3.7.68,5.57q-2.88.17-3.48,4.09c-1.03-.63-2.08-1.28-3.8-2.34,1.17,3.64,3.2,5.93,2.84,9.77-1.35-1.52-2.22-2.45-3.04-3.41-.84-.99-1.65-2.01-3.11-3.81.25,3.15.4,5.01.55,6.87-.25.01-.49.03-.74.04-.95-1.32-1.91-2.64-2.86-3.96-.09,1.69.39,3.09.72,4.52.3,1.31,1.81,2.52.25,4.3-1.59-1.39-3.13-2.74-4.66-4.08-.24.29-.47.58-.71.87,8.58,19.54,23.96,32.1,42.71,41.15,5.72,2.76,8.08,3.22,10.13,2.54-.91-1.18-1.82-2.35-2.55-3.31,1.08-1.14,2.01-2.11,2.98-3.14-1.32-.93-2.24-1.58-3.98-2.81,3.13.45,5.25.76,7.8,1.13-1.11-1.86-1.88-3.13-3.18-5.3,2.87.49,4.47.76,6.07,1.03.16-.33.31-.66.47-.99l-8.28-5.29c.08-.21.16-.42.25-.62,4.37.88,8.74,1.75,13.11,2.63.11-.35.22-.69.33-1.04-1.97-.96-3.94-1.91-6.34-3.08,1.82-.32,3.07-.54,4.76-.83-1.03-1.17-1.77-2.01-2.81-3.18,2.48-.33,4.41-.59,6.33-.85,0-.3-.01-.59-.02-.89-3.9-2.02-7.81-4.04-11.71-6.06.05-.15.11-.3.16-.45,2.87.31,5.74.61,8.61.92l.45-1.24c-1.4-1.13-2.79-2.25-4.42-3.56,2.82-.2,5.24-.37,7.66-.54-.03-.25-.07-.5-.1-.76-2.2-.97-4.4-1.94-6.6-2.92,0,0-.12.11-.12.11Zm52.59-47.58c-.52-2.71-.86-4.51-1.34-7,3.74,1.59,4.34,5.25,7.46,6.94-.66-2.5-1.31-5-1.97-7.49.21-.14.41-.29.62-.43,1.77,2.13,3.53,4.26,5.86,7.06-.18-2.59-.3-4.21-.43-6.07,1.44.53,2.31.85,3.79,1.39-.96-2.74-1.67-4.78-2.61-7.46,1.87.68,2.96,1.09,4.98,1.83-1.06-2.95-1.84-5.13-2.62-7.3.27-.18.55-.37.82-.55,1.47,1.53,2.93,3.07,4.84,5.06.1-2.07.16-3.48.27-5.98,1.64,1.96,2.59,3.09,3.53,4.22.21-.09.42-.17.63-.26-.74-2.48-1.48-4.96-2.22-7.45.33-.2.66-.4.98-.6,1.59,1.71,3.18,3.43,4.86,5.23-.05-16.1-35.64-46.23-53.61-45.5.62,1.17,1.23,2.3,2.19,4.11-2.68-.42-4.58-.72-7.06-1.1,2.88,2.8,7.05,2.69,9.02,6.64-3.01-.35-5.52-.64-9.01-1.04,2.3,1.69,3.67,2.7,5.05,3.71-.17.32-.34.63-.5.95-3.03-.48-6.05-.96-9.64-1.53,2.57,3.3,7.45,2.58,9.02,7.17-3.38-.62-6.29-1.16-9.65-1.78,1.27,1.39,2.33,2.56,3.97,4.36-2.96-.3-4.95-.5-7.89-.79,3.45,2.01,5.98,3.49,8.51,4.97-.15.32-.31.65-.46.97-2.13-.25-4.25-.49-6.38-.74-.09.35-.17.7-.26,1.05,2.34,1.11,4.72,2.14,6.99,3.38.51.28.62,1.29,1,2.16-1.64.24-2.91.43-4.59.68.86,1.39,1.53,2.46,2.26,3.64-2.67.43-5.12-.34-7.99,1.06,3.52,1.21,6.17,2.11,8.82,3.02l-.2.99h-7.35c6.62,2.46,12.93,4.92,18.3,9.39,5.34,4.45,9.04,10.06,11.63,16.6,1.5-1.79,2.73-3.61,3.93-.19.26.74.98,1.32,1.49,1.98.25-.1.49-.2.74-.3-.3-2.79-.61-5.59-.99-9.03,1.71,1.33,2.95,2.29,5.21,4.05Zm-43.7,37.57c14.63.02,26.35-11.36,26.37-25.6.02-13.94-11.38-25.36-25.39-25.44-14.4-.08-25.97,11.18-26.01,25.33-.04,14.28,11.06,25.69,25.03,25.71Z"/><path class="cls-1" d="m3,162.76V6.66c1.6-.09,3.05-.24,4.5-.24,20.31.02,40.63.04,60.94.11,22.79.08,42.44,7.92,57.92,24.75,37.55,40.83,23.1,103.87-25.52,125.31-10.05,4.43-20.63,6.39-31.58,6.41-21.31.02-42.63.01-63.94,0-.65,0-1.3-.13-2.33-.24Zm45.2-43.98c6.73,0,12.88.06,19.03-.01,17-.21,30.92-12.49,33.32-29.34,2.29-16.04-8.24-32.2-24.22-36.81-9.26-2.67-18.74-.98-28.13-1.46v67.62Z"/><path class="cls-1" d="m522.19,162.73c25.48-39.66,50.64-78.81,76.2-118.6h-78.25V6.71h157.61c-23.74,38.22-47.18,75.97-71.35,114.87,12.74.02,24.28.05,35.81.06,11.49.01,22.98,0,34.92,0v41.09h-154.95Z"/><path class="cls-1" d="m215.52,162.75h-52.79c27.58-52.19,54.92-103.91,82.61-156.31,27.38,52.33,54.46,104.06,81.77,156.25h-52.79c-9.58-17.9-19.26-36.01-29.37-54.9-10.03,18.72-19.66,36.7-29.44,54.95Z"/><path class="cls-1" d="m280.93,178.25v48.98h-32.42v122.39h-45.77v-122.35h-32.49v-49.02h110.69Z"/><path class="cls-1" d="m440.23,162.82h-41.26c0-1.78,0-3.54,0-5.29,0-22.32-.03-44.64.07-66.96.01-2.98-.7-5.35-2.54-7.77-18.55-24.37-36.99-48.82-55.44-73.26-.58-.77-1.09-1.6-2.14-3.14,1.9,0,3.14,0,4.37,0,14.83,0,29.65.08,44.48-.09,2.92-.03,4.47,1,5.95,3.37,8.48,13.54,17.12,26.97,25.71,40.44.42.66.88,1.3,1.63,2.38,1.26-1.86,2.29-3.29,3.24-4.79,7.94-12.49,15.92-24.97,23.75-37.53,1.65-2.64,3.4-3.9,6.74-3.85,15.81.21,31.62.09,48.07.09-.89,1.42-1.44,2.52-2.18,3.46-19.46,24.72-38.9,49.45-58.47,74.08-1.75,2.2-1.97,4.43-1.97,6.95.01,22.32,0,44.64-.01,66.96,0,1.48,0,2.96,0,4.94Z"/><path class="cls-1" d="m693.33,178.1h55.02v171.35h-55.02v-171.35Z"/><path class="cls-2" d="m751.77,134.26c1.43,16.55-15.09,31.77-30.65,31.56-18.84-.25-32.03-15.46-31.79-31.73.21-14.36,13.38-30.06,30.54-30.12,17.36-.05,32.59,13.28,31.9,30.29Z"/><path class="cls-1" d="m776.27,100.42c1.68,0,3.3,0,4.92,0,6.82,0,13.65-.2,20.46.12,3.76.18,7.64.78,11.17,2.02,8.01,2.82,11.7,9.2,11.77,17.35.07,7.53-3.3,13.44-10.39,16.79-.88.42-1.75.88-3.24,1.65,2.45,4.15,4.79,8.08,7.08,12.03,2.23,3.84,4.41,7.71,7.03,12.31-5.72,0-10.64.16-15.54-.13-1.09-.06-2.41-1.53-3.07-2.67-3.43-5.89-6.7-11.87-9.99-17.84-1.02-1.85-2.02-3.54-5.14-2.25v22.62h-15.05v-62.01Zm15.19,27.83c4.06,0,7.86.33,11.58-.09,4.1-.46,6.01-3.09,6.08-7.19.07-4.12-2.22-7.37-6.13-7.77-3.72-.38-7.5-.08-11.52-.08v15.12Z"/><path class="cls-1" d="m924.52,141.54h15.53c1.09,7.87-10.77,20.58-24.95,21.43-18.86,1.13-33.14-9.66-34.93-26.65-1.98-18.72,8.49-33.68,25.2-36.03,17.67-2.48,32.47,6.3,35.19,21.15h-15.88c-6-7.78-13.15-10.06-20.63-6.03-2.36,1.27-4.62,3.41-5.98,5.72-3.39,5.78-3.47,12.18-1.17,18.33,4.27,11.38,18.52,13.48,26.23,4.05.51-.63.94-1.33,1.39-1.97Z"/><path class="cls-1" d="m849.77,125.16h19.82v11.47h-19.71v13.8h22.46v11.89h-37.88v-61.58h37.98v11.82h-22.66v12.58Z"/><path class="cls-1" d="m809.33,282.54c.17.67.34,1.34.51,2.02-.51-.33-1.02-.67-1.53-1,.34-.34.68-.68,1.01-1.02Z"/><path class="cls-1" d="m843.94,302.92c-.47-.11-.94-.22-.39-.09-.45-.33-.09-.07.27.2l.12-.11Z"/><path class="cls-1" d="m788.08,306.18v-2.18c.3.37.66.7.88,1.11.05.1-.35.44-.88,1.06Z"/><path class="cls-1" d="m796.57,299.72c-.21-.12-.41-.23-.61-.35.11-.1.24-.31.31-.29.22.05.42.2.63.3-.1.11-.2.21-.32.34Z"/><path class="cls-1" d="m872.53,204.76c-.48.03-.9.06-1.31.08,0-.39,0-.79,0-1.18.41.09.84.15,1.23.31.1.04.05.43.09.79Z"/><path class="cls-1" d="m864.66,211.68c.37.21.78.45,1.2.69-.27.26-.59.76-.81.72-.4-.07-.74-.46-1.11-.72.22-.21.44-.42.72-.69Z"/><path class="cls-1" d="m913.32,233.16c.5.09,1.01.16,1.5.27.03,0,.02.36.02.36-.52.05-1.05.07-1.58.1.02-.24.04-.49.05-.73Z"/><path class="cls-1" d="m907.32,247.82c-.71.17-1.12.4-1.44.3-.23-.07-.33-.57-.49-.88.26-.11.56-.36.76-.29.34.11.6.43,1.17.87Z"/><path class="cls-1" d="m915.1,235.26c.13-.13.24-.24.36-.36.11.22.26.44.31.67.02.08-.2.22-.31.33-.12-.22-.24-.43-.36-.64Z"/><path class="cls-1" d="m853.37,260.34c3.8.06,6.84,3.22,6.81,7.08-.02,3.94-3.04,6.97-6.91,6.95-4.04-.02-6.67-2.81-6.65-7.05.02-4.07,2.89-7.04,6.75-6.98Z"/></g></svg>